<?xml version="1.0" standalone="no"?>
<!DOCTYPE svg PUBLIC "-//W3C//DTD SVG 20010904//EN"
 "http://www.w3.org/TR/2001/REC-SVG-20010904/DTD/svg10.dtd">
<svg version="1.0" xmlns="http://www.w3.org/2000/svg"
 width="512.000000pt" height="512.000000pt" viewBox="0 0 512.000000 512.000000"
 preserveAspectRatio="xMidYMid meet">
<metadata>
Created by potrace 1.14, written by Peter Selinger 2001-2017
</metadata>
<g transform="translate(0.000000,512.000000) scale(0.100000,-0.100000)"
fill="#000000" stroke="none">
<path d="M2390 5114 c-8 -1 -55 -8 -105 -14 -257 -34 -528 -135 -757 -282 -89
-58 -107 -80 -101 -128 3 -28 -1 -39 -23 -56 -24 -20 -29 -20 -55 -7 -39 19
-61 10 -126 -50 -109 -102 -138 -160 -102 -203 9 -11 8 -18 -5 -33 -13 -14
-26 -18 -55 -14 -33 5 -43 1 -67 -25 -104 -109 -273 -488 -309 -692 -3 -19
-10 -53 -15 -75 -24 -112 -34 -407 -18 -557 42 -390 238 -811 509 -1090 57
-59 87 -71 128 -48 15 7 32 -3 89 -51 l72 -61 -42 -61 c-61 -91 -181 -261
-188 -267 -3 -3 -23 -30 -45 -60 -21 -30 -59 -80 -84 -111 -26 -31 -62 -76
-81 -100 -224 -280 -552 -615 -900 -919 -110 -96 -111 -98 -108 -128 6 -46 26
-71 63 -78 37 -7 57 2 108 50 26 24 34 26 121 26 92 0 94 -1 100 -25 15 -59
-146 -55 2365 -55 1265 0 2307 3 2316 6 24 10 47 62 40 93 -4 17 -33 51 -83
93 -115 99 -119 102 -226 201 -128 118 -292 281 -431 430 -111 119 -135 134
-180 117 -20 -8 -28 -3 -60 35 -34 42 -35 46 -22 72 18 38 12 59 -36 122 -53
69 -76 84 -119 76 -44 -8 -76 21 -58 55 26 48 16 73 -87 220 l-100 143 61 51
c248 205 430 451 562 759 18 42 31 77 27 77 -3 0 -1 6 5 13 23 29 81 271 99
417 9 71 9 378 0 450 -55 433 -237 810 -532 1105 -49 50 -104 102 -120 115
-100 82 -129 103 -209 155 -157 101 -370 198 -526 239 -30 8 -62 17 -70 20
-60 23 -272 48 -430 51 -96 1 -182 1 -190 -1z"/>
</g>
</svg>
